<!DOCTYPE svg PUBLIC "-//W3C//DTD SVG 1.1//EN" "http://www.w3.org/Graphics/SVG/1.1/DTD/svg11.dtd">
<svg xmlns="http://www.w3.org/2000/svg" xmlns:xlink="http://www.w3.org/1999/xlink" xmlns:jfreesvg="http://www.jfree.org/jfreesvg/svg" width="300" height="300" text-rendering="auto" shape-rendering="auto">
<defs><clipPath id="62379386944672clip-0"><path d="M 0 0 L 300 0 L 300 300 L 0 300 L 0 0 M 0 0"/></clipPath>
<clipPath id="62379386944672clip-1"><path d="M 5 15.97 L 5 295 L 205.71 295 L 205.71 15.97 M 5 15.97"/></clipPath>
</defs>
<rect x="0" y="0" width="300" height="300" style="fill: rgb(255,255,255); fill-opacity: 1.0" transform="matrix(1,0,0,1,0,0)" clip-path="url(#62379386944672clip-0)"/><g transform="matrix(1,0,0,1,0,0)"><text x="90.67" y="12.14" style="fill: rgb(0,0,0); fill-opacity: 1.0; font-family: sans-serif; font-size: 12px; " clip-path="url(#62379386944672clip-0)">Neon X issue status</text></g><rect x="211.71" y="111.06" width="87.29" height="93.84" style="fill: rgb(255,255,255); fill-opacity: 1.0" transform="matrix(1,0,0,1,0,0)" clip-path="url(#62379386944672clip-0)"/><line x1="212.21" y1="111.56" x2="298.5" y2="111.56" style="stroke-width: 1.0;stroke: rgb(0,0,0);stroke-opacity: 1.0;" transform="matrix(1,0,0,1,0,0)" clip-path="url(#62379386944672clip-0)"/><line x1="212.21" y1="204.41" x2="298.5" y2="204.41" style="stroke-width: 1.0;stroke: rgb(0,0,0);stroke-opacity: 1.0;" transform="matrix(1,0,0,1,0,0)" clip-path="url(#62379386944672clip-0)"/><line x1="212.21" y1="204.41" x2="212.21" y2="111.56" style="stroke-width: 1.0;stroke: rgb(0,0,0);stroke-opacity: 1.0;" transform="matrix(1,0,0,1,0,0)" clip-path="url(#62379386944672clip-0)"/><line x1="298.5" y1="204.41" x2="298.5" y2="111.56" style="stroke-width: 1.0;stroke: rgb(0,0,0);stroke-opacity: 1.0;" transform="matrix(1,0,0,1,0,0)" clip-path="url(#62379386944672clip-0)"/><g style="fill: rgb(255,85,85); fill-opacity: 1.0; stroke: none" transform="matrix(1,0,0,1,0,0)" clip-path="url(#62379386944672clip-0)"><path d="M 223.71 122.05 C 223.71 124.26 221.91 126.05 219.71 126.05 C 217.5 126.05 215.71 124.26 215.71 122.05 C 215.71 119.84 217.5 118.05 219.71 118.05 C 221.91 118.05 223.71 119.84 223.71 122.05 M 223.71 122.05"/></g><g style="stroke-width: 0.5;stroke: rgb(128,128,128);stroke-opacity: 1.0;; fill: none" transform="matrix(1,0,0,1,0,0)" clip-path="url(#62379386944672clip-0)"><path d="M 223.71 122.05 C 223.71 124.26 221.91 126.05 219.71 126.05 C 217.5 126.05 215.71 124.26 215.71 122.05 C 215.71 119.84 217.5 118.05 219.71 118.05 C 221.91 118.05 223.71 119.84 223.71 122.05 M 223.71 122.05"/></g><g transform="matrix(1,0,0,1,0,0)"><text x="227.71" y="126.2" style="fill: rgb(64,64,64); fill-opacity: 1.0; font-family: sans-serif; font-size: 12px; " clip-path="url(#62379386944672clip-0)">High:8</text></g><g style="fill: rgb(85,85,255); fill-opacity: 1.0; stroke: none" transform="matrix(1,0,0,1,0,0)" clip-path="url(#62379386944672clip-0)"><path d="M 223.71 140.02 C 223.71 142.22 221.91 144.02 219.71 144.02 C 217.5 144.02 215.71 142.22 215.71 140.02 C 215.71 137.81 217.5 136.02 219.71 136.02 C 221.91 136.02 223.71 137.81 223.71 140.02 M 223.71 140.02"/></g><g style="stroke-width: 0.5;stroke: rgb(128,128,128);stroke-opacity: 1.0;; fill: none" transform="matrix(1,0,0,1,0,0)" clip-path="url(#62379386944672clip-0)"><path d="M 223.71 140.02 C 223.71 142.22 221.91 144.02 219.71 144.02 C 217.5 144.02 215.71 142.22 215.71 140.02 C 215.71 137.81 217.5 136.02 219.71 136.02 C 221.91 136.02 223.71 137.81 223.71 140.02 M 223.71 140.02"/></g><g transform="matrix(1,0,0,1,0,0)"><text x="227.71" y="144.17" style="fill: rgb(64,64,64); fill-opacity: 1.0; font-family: sans-serif; font-size: 12px; " clip-path="url(#62379386944672clip-0)">Low:7</text></g><g style="fill: rgb(85,255,85); fill-opacity: 1.0; stroke: none" transform="matrix(1,0,0,1,0,0)" clip-path="url(#62379386944672clip-0)"><path d="M 223.71 157.98 C 223.71 160.19 221.91 161.98 219.71 161.98 C 217.5 161.98 215.71 160.19 215.71 157.98 C 215.71 155.78 217.5 153.98 219.71 153.98 C 221.91 153.98 223.71 155.78 223.71 157.98 M 223.71 157.98"/></g><g style="stroke-width: 0.5;stroke: rgb(128,128,128);stroke-opacity: 1.0;; fill: none" transform="matrix(1,0,0,1,0,0)" clip-path="url(#62379386944672clip-0)"><path d="M 223.71 157.98 C 223.71 160.19 221.91 161.98 219.71 161.98 C 217.5 161.98 215.71 160.19 215.71 157.98 C 215.71 155.78 217.5 153.98 219.71 153.98 C 221.91 153.98 223.71 155.78 223.71 157.98 M 223.71 157.98"/></g><g transform="matrix(1,0,0,1,0,0)"><text x="227.71" y="162.14" style="fill: rgb(64,64,64); fill-opacity: 1.0; font-family: sans-serif; font-size: 12px; " clip-path="url(#62379386944672clip-0)">Medium:39</text></g><g style="fill: rgb(255,255,85); fill-opacity: 1.0; stroke: none" transform="matrix(1,0,0,1,0,0)" clip-path="url(#62379386944672clip-0)"><path d="M 223.71 175.95 C 223.71 178.16 221.91 179.95 219.71 179.95 C 217.5 179.95 215.71 178.16 215.71 175.95 C 215.71 173.74 217.5 171.95 219.71 171.95 C 221.91 171.95 223.71 173.74 223.71 175.95 M 223.71 175.95"/></g><g style="stroke-width: 0.5;stroke: rgb(128,128,128);stroke-opacity: 1.0;; fill: none" transform="matrix(1,0,0,1,0,0)" clip-path="url(#62379386944672clip-0)"><path d="M 223.71 175.95 C 223.71 178.16 221.91 179.95 219.71 179.95 C 217.5 179.95 215.71 178.16 215.71 175.95 C 215.71 173.74 217.5 171.95 219.71 171.95 C 221.91 171.95 223.71 173.74 223.71 175.95 M 223.71 175.95"/></g><g transform="matrix(1,0,0,1,0,0)"><text x="227.71" y="180.11" style="fill: rgb(64,64,64); fill-opacity: 1.0; font-family: sans-serif; font-size: 12px; " clip-path="url(#62379386944672clip-0)">Lowest:1</text></g><g style="fill: rgb(255,85,255); fill-opacity: 1.0; stroke: none" transform="matrix(1,0,0,1,0,0)" clip-path="url(#62379386944672clip-0)"><path d="M 223.71 193.92 C 223.71 196.13 221.91 197.92 219.71 197.92 C 217.5 197.92 215.71 196.13 215.71 193.92 C 215.71 191.71 217.5 189.92 219.71 189.92 C 221.91 189.92 223.71 191.71 223.71 193.92 M 223.71 193.92"/></g><g style="stroke-width: 0.5;stroke: rgb(128,128,128);stroke-opacity: 1.0;; fill: none" transform="matrix(1,0,0,1,0,0)" clip-path="url(#62379386944672clip-0)"><path d="M 223.71 193.92 C 223.71 196.13 221.91 197.92 219.71 197.92 C 217.5 197.92 215.71 196.13 215.71 193.92 C 215.71 191.71 217.5 189.92 219.71 189.92 C 221.91 189.92 223.71 191.71 223.71 193.92 M 223.71 193.92"/></g><g transform="matrix(1,0,0,1,0,0)"><text x="227.71" y="198.08" style="fill: rgb(64,64,64); fill-opacity: 1.0; font-family: sans-serif; font-size: 12px; " clip-path="url(#62379386944672clip-0)">Highest:1</text></g><rect x="5" y="15.97" width="200.71" height="279.03" style="fill: rgb(192,192,192); fill-opacity: 1.0" transform="matrix(1,0,0,1,0,0)" clip-path="url(#62379386944672clip-0)"/><rect x="5" y="15.97" width="200.71" height="279.03" style="stroke-width: 0.5;stroke: rgb(0,0,0);stroke-opacity: 1.0;; fill: none" transform="matrix(1,0,0,1,0,0)" clip-path="url(#62379386944672clip-0)"/><g style="fill: rgb(128,128,128); fill-opacity: 1.0; stroke: none" transform="matrix(1,0,0,1,0,0)" clip-path="url(#62379386944672clip-1)"><path d="M 109.35 42.29 C 135.01 42.29 159.26 58.53 175.26 86.42 L 109.35 159.48 M 109.35 42.29"/></g><g style="fill: rgb(128,128,128); fill-opacity: 1.0; stroke: none" transform="matrix(1,0,0,1,0,0)" clip-path="url(#62379386944672clip-1)"><path d="M 175.26 86.42 C 189.2 110.72 195.62 141.72 193.12 172.61 L 109.35 159.48 M 175.26 86.42"/></g><g style="fill: rgb(128,128,128); fill-opacity: 1.0; stroke: none" transform="matrix(1,0,0,1,0,0)" clip-path="url(#62379386944672clip-1)"><path d="M 193.12 172.61 C 188.31 231.88 152.26 276.68 109.35 276.68 C 66.45 276.68 30.39 231.88 25.59 172.61 C 20.78 113.33 48.77 58.5 90.59 45.23 L 109.35 159.48 M 193.12 172.61"/></g><g style="fill: rgb(128,128,128); fill-opacity: 1.0; stroke: none" transform="matrix(1,0,0,1,0,0)" clip-path="url(#62379386944672clip-1)"><path d="M 90.59 45.23 C 93.67 44.25 96.78 43.52 99.91 43.03 L 109.35 159.48 M 90.59 45.23"/></g><g style="fill: rgb(128,128,128); fill-opacity: 1.0; stroke: none" transform="matrix(1,0,0,1,0,0)" clip-path="url(#62379386944672clip-1)"><path d="M 99.91 43.03 C 103.05 42.54 106.2 42.29 109.35 42.29 L 109.35 159.48 M 99.91 43.03"/></g><g style="fill: rgb(255,85,85); fill-opacity: 1.0; stroke: none" transform="matrix(1,0,0,1,0,0)" clip-path="url(#62379386944672clip-1)"><path d="M 105.35 38.29 C 131.01 38.29 155.26 54.53 171.26 82.42 L 105.35 155.48 M 105.35 38.29"/></g><g style="stroke-width: 0.5;stroke: rgb(128,128,128);stroke-opacity: 1.0;; fill: none" transform="matrix(1,0,0,1,0,0)" clip-path="url(#62379386944672clip-1)"><path d="M 105.35 38.29 C 131.01 38.29 155.26 54.53 171.26 82.42 L 105.35 155.48 M 105.35 38.29"/></g><g style="fill: rgb(85,85,255); fill-opacity: 1.0; stroke: none" transform="matrix(1,0,0,1,0,0)" clip-path="url(#62379386944672clip-1)"><path d="M 171.26 82.42 C 185.2 106.72 191.62 137.72 189.12 168.61 L 105.35 155.48 M 171.26 82.42"/></g><g style="stroke-width: 0.5;stroke: rgb(128,128,128);stroke-opacity: 1.0;; fill: none" transform="matrix(1,0,0,1,0,0)" clip-path="url(#62379386944672clip-1)"><path d="M 171.26 82.42 C 185.2 106.72 191.62 137.72 189.12 168.61 L 105.35 155.48 M 171.26 82.42"/></g><g style="fill: rgb(85,255,85); fill-opacity: 1.0; stroke: none" transform="matrix(1,0,0,1,0,0)" clip-path="url(#62379386944672clip-1)"><path d="M 189.12 168.61 C 184.31 227.88 148.26 272.68 105.35 272.68 C 62.45 272.68 26.39 227.88 21.59 168.61 C 16.78 109.33 44.77 54.5 86.59 41.23 L 105.35 155.48 M 189.12 168.61"/></g><g style="stroke-width: 0.5;stroke: rgb(128,128,128);stroke-opacity: 1.0;; fill: none" transform="matrix(1,0,0,1,0,0)" clip-path="url(#62379386944672clip-1)"><path d="M 189.12 168.61 C 184.31 227.88 148.26 272.68 105.35 272.68 C 62.45 272.68 26.39 227.88 21.59 168.61 C 16.78 109.33 44.77 54.5 86.59 41.23 L 105.35 155.48 M 189.12 168.61"/></g><g style="fill: rgb(255,255,85); fill-opacity: 1.0; stroke: none" transform="matrix(1,0,0,1,0,0)" clip-path="url(#62379386944672clip-1)"><path d="M 86.59 41.23 C 89.67 40.25 92.78 39.52 95.91 39.03 L 105.35 155.48 M 86.59 41.23"/></g><g style="stroke-width: 0.5;stroke: rgb(128,128,128);stroke-opacity: 1.0;; fill: none" transform="matrix(1,0,0,1,0,0)" clip-path="url(#62379386944672clip-1)"><path d="M 86.59 41.23 C 89.67 40.25 92.78 39.52 95.91 39.03 L 105.35 155.48 M 86.59 41.23"/></g><g style="fill: rgb(255,85,255); fill-opacity: 1.0; stroke: none" transform="matrix(1,0,0,1,0,0)" clip-path="url(#62379386944672clip-1)"><path d="M 95.91 39.03 C 99.05 38.54 102.2 38.29 105.35 38.29 L 105.35 155.48 M 95.91 39.03"/></g><g style="stroke-width: 0.5;stroke: rgb(128,128,128);stroke-opacity: 1.0;; fill: none" transform="matrix(1,0,0,1,0,0)" clip-path="url(#62379386944672clip-1)"><path d="M 95.91 39.03 C 99.05 38.54 102.2 38.29 105.35 38.29 L 105.35 155.48 M 95.91 39.03"/></g><g style="fill: rgb(151,151,151); fill-opacity: 0.5019608; stroke: none" transform="matrix(1,0,0,1,0,0)" clip-path="url(#62379386944672clip-1)"><path d="M 121.96 84.93 L 142.04 84.93 L 142.04 97.07 L 121.96 97.07 L 121.96 84.93 M 121.96 84.93"/></g><g style="fill: rgb(255,255,192); fill-opacity: 1.0; stroke: none" transform="matrix(1,0,0,1,0,0)" clip-path="url(#62379386944672clip-1)"><path d="M 117.96 80.93 L 138.04 80.93 L 138.04 93.07 L 117.96 93.07 L 117.96 80.93 M 117.96 80.93"/></g><g style="stroke-width: 0.5;stroke: rgb(0,0,0);stroke-opacity: 1.0;; fill: none" transform="matrix(1,0,0,1,0,0)" clip-path="url(#62379386944672clip-1)"><path d="M 117.96 80.93 L 138.04 80.93 L 138.04 93.07 L 117.96 93.07 L 117.96 80.93 M 117.96 80.93"/></g><g transform="matrix(1,0,0,1,0,0)"><text x="119.96" y="89.42" style="fill: rgb(0,0,0); fill-opacity: 1.0; font-family: sans-serif; font-size: 7px; " clip-path="url(#62379386944672clip-1)">High</text></g><g style="fill: rgb(151,151,151); fill-opacity: 0.5019608; stroke: none" transform="matrix(1,0,0,1,0,0)" clip-path="url(#62379386944672clip-1)"><path d="M 152.05 131.93 L 169.95 131.93 L 169.95 144.07 L 152.05 144.07 L 152.05 131.93 M 152.05 131.93"/></g><g style="fill: rgb(255,255,192); fill-opacity: 1.0; stroke: none" transform="matrix(1,0,0,1,0,0)" clip-path="url(#62379386944672clip-1)"><path d="M 148.05 127.93 L 165.95 127.93 L 165.95 140.07 L 148.05 140.07 L 148.05 127.93 M 148.05 127.93"/></g><g style="stroke-width: 0.5;stroke: rgb(0,0,0);stroke-opacity: 1.0;; fill: none" transform="matrix(1,0,0,1,0,0)" clip-path="url(#62379386944672clip-1)"><path d="M 148.05 127.93 L 165.95 127.93 L 165.95 140.07 L 148.05 140.07 L 148.05 127.93 M 148.05 127.93"/></g><g transform="matrix(1,0,0,1,0,0)"><text x="150.05" y="136.42" style="fill: rgb(0,0,0); fill-opacity: 1.0; font-family: sans-serif; font-size: 7px; " clip-path="url(#62379386944672clip-1)">Low</text></g><g style="fill: rgb(151,151,151); fill-opacity: 0.5019608; stroke: none" transform="matrix(1,0,0,1,0,0)" clip-path="url(#62379386944672clip-1)"><path d="M 57.01 208.93 L 88.99 208.93 L 88.99 221.07 L 57.01 221.07 L 57.01 208.93 M 57.01 208.93"/></g><g style="fill: rgb(255,255,192); fill-opacity: 1.0; stroke: none" transform="matrix(1,0,0,1,0,0)" clip-path="url(#62379386944672clip-1)"><path d="M 53.01 204.93 L 84.99 204.93 L 84.99 217.07 L 53.01 217.07 L 53.01 204.93 M 53.01 204.93"/></g><g style="stroke-width: 0.5;stroke: rgb(0,0,0);stroke-opacity: 1.0;; fill: none" transform="matrix(1,0,0,1,0,0)" clip-path="url(#62379386944672clip-1)"><path d="M 53.01 204.93 L 84.99 204.93 L 84.99 217.07 L 53.01 217.07 L 53.01 204.93 M 53.01 204.93"/></g><g transform="matrix(1,0,0,1,0,0)"><text x="55.01" y="213.42" style="fill: rgb(0,0,0); fill-opacity: 1.0; font-family: sans-serif; font-size: 7px; " clip-path="url(#62379386944672clip-1)">Medium</text></g><g style="fill: rgb(151,151,151); fill-opacity: 0.5019608; stroke: none" transform="matrix(1,0,0,1,0,0)" clip-path="url(#62379386944672clip-1)"><path d="M 85.7 78.93 L 114.3 78.93 L 114.3 91.07 L 85.7 91.07 L 85.7 78.93 M 85.7 78.93"/></g><g style="fill: rgb(255,255,192); fill-opacity: 1.0; stroke: none" transform="matrix(1,0,0,1,0,0)" clip-path="url(#62379386944672clip-1)"><path d="M 81.7 74.93 L 110.3 74.93 L 110.3 87.07 L 81.7 87.07 L 81.7 74.93 M 81.7 74.93"/></g><g style="stroke-width: 0.5;stroke: rgb(0,0,0);stroke-opacity: 1.0;; fill: none" transform="matrix(1,0,0,1,0,0)" clip-path="url(#62379386944672clip-1)"><path d="M 81.7 74.93 L 110.3 74.93 L 110.3 87.07 L 81.7 87.07 L 81.7 74.93 M 81.7 74.93"/></g><g transform="matrix(1,0,0,1,0,0)"><text x="83.7" y="83.42" style="fill: rgb(0,0,0); fill-opacity: 1.0; font-family: sans-serif; font-size: 7px; " clip-path="url(#62379386944672clip-1)">Lowest</text></g><g style="fill: rgb(151,151,151); fill-opacity: 0.5019608; stroke: none" transform="matrix(1,0,0,1,0,0)" clip-path="url(#62379386944672clip-1)"><path d="M 90.61 77.93 L 121.39 77.93 L 121.39 90.07 L 90.61 90.07 L 90.61 77.93 M 90.61 77.93"/></g><g style="fill: rgb(255,255,192); fill-opacity: 1.0; stroke: none" transform="matrix(1,0,0,1,0,0)" clip-path="url(#62379386944672clip-1)"><path d="M 86.61 73.93 L 117.39 73.93 L 117.39 86.07 L 86.61 86.07 L 86.61 73.93 M 86.61 73.93"/></g><g style="stroke-width: 0.5;stroke: rgb(0,0,0);stroke-opacity: 1.0;; fill: none" transform="matrix(1,0,0,1,0,0)" clip-path="url(#62379386944672clip-1)"><path d="M 86.61 73.93 L 117.39 73.93 L 117.39 86.07 L 86.61 86.07 L 86.61 73.93 M 86.61 73.93"/></g><g transform="matrix(1,0,0,1,0,0)"><text x="88.61" y="82.42" style="fill: rgb(0,0,0); fill-opacity: 1.0; font-family: sans-serif; font-size: 7px; " clip-path="url(#62379386944672clip-1)">Highest</text></g><rect x="5" y="15.97" width="200.71" height="279.03" style="stroke-width: 0.5;stroke: rgb(0,0,0);stroke-opacity: 1.0;; fill: none" transform="matrix(1,0,0,1,0,0)" clip-path="url(#62379386944672clip-0)"/></svg>
